<svg width="60" height="59" viewBox="0 0 60 59" fill="none" xmlns="http://www.w3.org/2000/svg">
<g clip-path="url(#clip0_2_9)">
<path d="M51.9347 58.9949C50.0674 58.9951 48.2577 58.3539 46.8143 57.1805C45.3708 56.0071 44.3827 54.3743 44.0184 52.5602C43.6542 50.746 43.9363 48.8629 44.8167 47.2318C45.6971 45.6006 47.1213 44.3223 48.8466 43.6147C50.5719 42.9071 52.4915 42.8141 54.2783 43.3514C56.0651 43.8887 57.6085 45.0231 58.6455 46.5613C59.6825 48.0995 60.149 49.9463 59.9653 51.7869C59.7817 53.6276 58.9593 55.3483 57.6384 56.6557C56.89 57.3984 56.0009 57.9874 55.0221 58.3888C54.0433 58.7902 52.9941 58.9962 51.9347 58.9949Z" fill="#2962E8"/>
<path d="M8.07565 16.3595C6.20834 16.3597 4.39873 15.7184 2.95524 14.5451C1.51174 13.3717 0.52368 11.7388 0.159435 9.92471C-0.20481 8.11059 0.0773072 6.22751 0.957699 4.59634C1.83809 2.96517 3.26228 1.68687 4.98756 0.979294C6.71284 0.271714 8.63245 0.178627 10.4193 0.715917C12.2061 1.25321 13.7495 2.38761 14.7865 3.92581C15.8235 5.46402 16.2899 7.31083 16.1063 9.15152C15.9227 10.9922 15.1003 12.7128 13.7794 14.0202C13.0324 14.7648 12.1435 15.3549 11.1644 15.7565C10.1853 16.1581 9.13538 16.363 8.07565 16.3595Z" fill="#2962E8"/>
<path d="M51.5701 16.1256C49.7029 16.1234 47.8943 15.48 46.4523 14.3049C45.0104 13.1299 44.0244 11.496 43.6623 9.68156C43.3003 7.86714 43.5846 5.98449 44.4668 4.35443C45.349 2.72436 46.7745 1.44773 48.5004 0.742055C50.2263 0.0363808 52.1459 -0.0546719 53.932 0.484421C55.7181 1.02351 57.2603 2.15939 58.2957 3.69851C59.3311 5.23762 59.7957 7.08474 59.6103 8.92512C59.4249 10.7655 58.601 12.4853 57.279 13.7914C56.5304 14.5349 55.6405 15.1241 54.6606 15.5247C53.6806 15.9254 52.6302 16.1296 51.5701 16.1256Z" fill="#2962E8"/>
<path d="M8.28609 58.9949C6.68925 58.9958 5.12805 58.5274 3.80006 57.6491C2.47206 56.7707 1.43696 55.5219 0.825765 54.0606C0.214565 52.5993 0.0547311 50.9913 0.366497 49.44C0.678264 47.8887 1.44761 46.4639 2.57718 45.3459C2.92476 45.0033 3.30664 44.6966 3.71691 44.4305C3.84393 44.3403 3.9759 44.2571 4.11222 44.1814C4.40999 44.0085 4.70776 43.8559 4.98499 43.7288C5.139 43.6627 5.29302 43.5915 5.45731 43.5304C5.77406 43.4103 6.09813 43.3101 6.42761 43.2304L6.63297 43.1745L6.76131 43.1389L8.55818 43.0219C8.78408 43.0219 9.02538 43.0575 9.28721 43.0931H9.38988H9.61578H9.68765H9.76979H9.84166H10.237C13.3951 43.0489 16.4064 41.765 18.6097 39.5235C20.8131 37.2819 22.0283 34.2658 21.9885 31.1375V31.046V30.9544C21.9834 30.868 21.9834 30.7815 21.9885 30.6951C21.9885 30.5934 21.9885 30.4917 21.9577 30.3899V30.2069C21.9577 30.0543 21.9269 29.9068 21.9166 29.7543L22.0501 27.9643C22.0614 27.9212 22.0752 27.8787 22.0912 27.8371L22.122 27.7252C22.198 27.3794 22.2993 27.0395 22.4249 26.7082C22.4803 26.5501 22.5455 26.3956 22.62 26.2454C22.7592 25.9406 22.9152 25.6435 23.0871 25.3555C23.1642 25.2334 23.2412 25.1063 23.3284 24.9792C23.6018 24.5732 23.9129 24.1936 24.2577 23.8451C25.0011 23.075 25.8924 22.4597 26.8792 22.0355C27.866 21.6112 28.9284 21.3865 30.004 21.3746C31.0797 21.3627 32.1469 21.5637 33.1431 21.966C34.1392 22.3682 35.0442 22.9636 35.8048 23.717C36.5655 24.4705 37.1665 25.3669 37.5726 26.3536C37.9787 27.3403 38.1817 28.3974 38.1696 29.4629C38.1576 30.5284 37.9307 31.5808 37.5024 32.5582C37.0741 33.5357 36.453 34.4185 35.6755 35.1549C35.3252 35.4946 34.9437 35.801 34.5358 36.0703C34.4023 36.1618 34.2739 36.2381 34.1456 36.3093C33.864 36.4787 33.5725 36.6315 33.2728 36.767C33.1137 36.8382 32.9545 36.9093 32.8056 36.9653C32.4848 37.0807 32.1573 37.1775 31.8251 37.2551L31.63 37.306L31.5016 37.3416L29.6842 37.4687C29.4591 37.4581 29.2346 37.436 29.0117 37.4026H28.8525H28.6266H28.5034H28.411H27.9438C26.377 37.4218 24.8295 37.7471 23.3898 38.3598C21.9501 38.9724 20.6466 39.8605 19.554 40.973C18.4614 42.0855 17.6011 43.4006 17.0225 44.843C16.4439 46.2854 16.1583 47.8267 16.182 49.3786V49.465V49.5566C16.1957 49.6424 16.2042 49.729 16.2077 49.8159C16.2077 49.9176 16.2077 50.0193 16.2385 50.121C16.2436 50.2147 16.2538 50.3081 16.2693 50.4007C16.2693 50.5228 16.2693 50.6448 16.2693 50.7669V50.8075L16.141 52.5213C16.141 52.5569 16.0742 52.7552 16.0588 52.8163C15.9813 53.1528 15.8819 53.4841 15.7611 53.8079C15.7071 53.9608 15.6437 54.1102 15.5711 54.2554C15.4274 54.5605 15.2785 54.8504 15.1039 55.1504C15.0269 55.2674 14.9396 55.4098 14.8472 55.5471C14.5738 55.9438 14.2663 56.3164 13.9283 56.6608C13.1807 57.4046 12.2917 57.9943 11.3127 58.3958C10.3337 58.7974 9.28408 59.0027 8.22448 59L8.28609 58.9949Z" fill="#2962E8"/>
<path d="M30.0898 58.9949C28.3602 59.013 26.6709 58.478 25.2726 57.4695C23.8743 56.461 22.8417 55.0327 22.328 53.3966C21.8144 51.7606 21.8471 50.0041 22.4213 48.388C22.9955 46.7718 24.0806 45.3822 25.5155 44.4254C25.6387 44.3441 25.7671 44.2678 25.9005 44.1915C26.1844 44.0215 26.4775 43.867 26.7784 43.7288L27.2456 43.5304C27.5645 43.4171 27.8903 43.3237 28.2211 43.2507L28.5394 43.1592L30.367 43.027C30.5827 43.027 30.8137 43.0677 31.055 43.0982H31.1936H31.4298H31.5222H31.5786H32.0561C35.2115 43.0526 38.2197 41.7686 40.4201 39.5279C42.6206 37.2873 43.8334 34.2733 43.7922 31.1476V30.7764L43.7614 30.7357C43.7592 30.7223 43.7592 30.7085 43.7614 30.6951V30.4306L43.7306 30.1763C43.7306 30.034 43.6947 29.8967 43.6895 29.7543L43.8128 28.0253C43.8128 27.9795 43.8846 27.7659 43.9 27.6998C43.9792 27.367 44.0786 27.0392 44.1978 26.7183C44.2561 26.5606 44.323 26.4061 44.398 26.2556C44.536 25.956 44.6903 25.664 44.8601 25.3809L44.896 25.3199C44.9576 25.2182 45.0192 25.1114 45.0911 25.0097C45.368 24.6034 45.6807 24.2222 46.0255 23.8705C47.5407 22.3709 49.595 21.5286 51.7369 21.5286C53.8789 21.5286 55.9332 22.3709 57.4484 23.8705C58.9573 25.3741 59.8043 27.4079 59.8043 29.528C59.8043 31.648 58.9573 33.6819 57.4484 35.1854C57.0938 35.5222 56.7107 35.8284 56.3035 36.1008L56.0366 36.2635L55.8928 36.355C55.6192 36.5169 55.3364 36.6629 55.0457 36.7924C54.8815 36.8636 54.7326 36.9347 54.5683 36.9958C54.2459 37.1104 53.9167 37.2056 53.5826 37.2805L53.3772 37.3365L53.2489 37.3721L51.4571 37.4941C51.1953 37.4941 50.9078 37.4484 50.6357 37.4128C50.557 37.4088 50.4782 37.4088 50.3996 37.4128H50.3174H50.1634H49.763C48.1997 37.434 46.656 37.7601 45.22 38.3725C43.784 38.9849 42.4839 39.8716 41.394 40.9819C40.3041 42.0922 39.4458 43.4043 38.868 44.8433C38.2903 46.2823 38.0044 47.8199 38.0268 49.3684V49.4599V49.5464C38.0405 49.6374 38.049 49.729 38.0525 49.821C38.0525 49.9125 38.0525 50.0041 38.0782 50.0956C38.1038 50.1871 38.0782 50.2685 38.1038 50.36C38.1295 50.4516 38.1346 50.6346 38.1398 50.7669L38.0063 52.5264L37.9293 52.801C37.8516 53.1459 37.7522 53.4855 37.6315 53.8181C37.5802 53.9604 37.5134 54.1028 37.4518 54.2452L37.4262 54.2961C37.2918 54.5857 37.141 54.8676 36.9744 55.1402C36.8922 55.2759 36.8101 55.4081 36.7279 55.5369C36.4512 55.9417 36.1385 56.3212 35.7936 56.6709C35.0454 57.4129 34.156 58.0004 33.1769 58.3994C32.1978 58.7983 31.1485 59.0007 30.0898 58.9949Z" fill="#2962E8"/>
<path d="M8.29123 37.4077C6.69458 37.4095 5.13324 36.9423 3.80477 36.0649C2.4763 35.1876 1.4404 33.9397 0.828138 32.479C0.215874 31.0184 0.0547616 29.4107 0.365188 27.8593C0.675614 26.3079 1.44363 24.8826 2.57206 23.7637C2.92337 23.4217 3.30671 23.1135 3.71692 22.8433L4.11736 22.5941C4.39459 22.4314 4.68209 22.2839 4.98499 22.1415C5.13901 22.0703 5.29303 22.0042 5.45731 21.9432C5.77449 21.8298 6.09857 21.7364 6.42762 21.6635L6.62784 21.6076L6.74079 21.572L8.56846 21.4448C8.80462 21.4448 9.08185 21.4855 9.33342 21.5211H9.38989H9.62604H9.70819H9.78519H9.85707H10.2627C11.8255 21.4992 13.3687 21.1726 14.804 20.5599C16.2394 19.9472 17.5389 19.0604 18.6282 17.9502C19.7176 16.84 20.5755 15.5281 21.1529 14.0894C21.7304 12.6508 22.016 11.1135 21.9936 9.56549V9.47905V9.39259C21.9758 9.2952 21.9655 9.1966 21.9628 9.09765V8.85355L21.932 8.60437C21.9107 8.45769 21.897 8.31002 21.891 8.16195L22.0142 6.48378V6.44311V6.40751L22.0912 6.14815C22.1685 5.8032 22.268 5.46349 22.3889 5.13108C22.4454 4.97852 22.5173 4.82598 22.5892 4.66833C22.7261 4.36821 22.8803 4.07616 23.0512 3.79365V3.74787C23.1231 3.636 23.1898 3.51904 23.272 3.40207C23.5416 3.00096 23.8493 2.62634 24.191 2.28331C24.934 1.51284 25.825 0.897182 26.8116 0.472501C27.7982 0.047819 28.8605 -0.177326 29.9362 -0.189735C31.0118 -0.202144 32.0791 -0.00156292 33.0755 0.400243C34.0718 0.802049 34.977 1.39698 35.738 2.15009C36.499 2.90321 37.1004 3.79934 37.507 4.78586C37.9135 5.77238 38.117 6.82943 38.1054 7.89491C38.0938 8.9604 37.8675 10.0129 37.4396 10.9905C37.0118 11.9681 36.3911 12.8512 35.6139 13.588C35.2647 13.9289 34.883 14.2354 34.4742 14.5034C34.351 14.5898 34.2431 14.6508 34.1353 14.7169L34.0737 14.7525C33.776 14.9254 33.4885 15.078 33.2112 15.2051C33.0469 15.2763 32.8981 15.3475 32.7389 15.4035C32.4167 15.52 32.0875 15.6168 31.7532 15.6933C31.6821 15.7083 31.6118 15.7269 31.5427 15.7493L31.4144 15.7849L29.6226 15.9069C29.3967 15.9069 29.1554 15.8662 28.9039 15.8357H28.7909H28.5599H28.4675H28.411H27.9284C26.3643 15.8556 24.8195 16.1808 23.3823 16.7926C21.9452 17.4044 20.6439 18.2909 19.5529 19.4013C18.4619 20.5117 17.6026 21.8242 17.0242 23.2639C16.4458 24.7035 16.1597 26.242 16.182 27.7913V27.8778V27.9642C16.1999 28.0548 16.2102 28.1466 16.2129 28.2388C16.2129 28.3304 16.2129 28.427 16.2129 28.5185C16.2129 28.6101 16.2129 28.6863 16.2437 28.783C16.2616 28.9145 16.2718 29.0469 16.2745 29.1796L16.182 30.9239C16.182 30.9696 16.182 31.0154 16.1461 31.0612L16.0999 31.2188C16.0233 31.5634 15.9255 31.9031 15.8073 32.2359C15.7508 32.3885 15.6738 32.541 15.6019 32.7037C15.4682 32.9994 15.3192 33.2879 15.1553 33.5683C15.0731 33.7056 14.991 33.8378 14.9088 33.9598C14.6382 34.3661 14.3269 34.7444 13.9796 35.0888C13.2332 35.8327 12.3451 36.4225 11.3669 36.824C10.3887 37.2256 9.33983 37.4309 8.28096 37.428L8.29123 37.4077Z" fill="#2962E8"/>
</g>
<defs>
<clipPath id="clip0_2_9">
<rect width="60" height="59" fill="white"/>
</clipPath>
</defs>
</svg>
